<?xml version="1.0" encoding="UTF-8"?>
<svg version="1.1" xmlns="http://www.w3.org/2000/svg" width="512" height="512">
<path d="M0 0 C4.07371199 0.00914608 8.14735849 -0.00496601 12.22105694 -0.01591969 C20.17765482 -0.03360871 28.13410087 -0.02990815 36.09070444 -0.01826912 C42.56324498 -0.00919692 49.03574329 -0.00802708 55.50828838 -0.01236439 C56.8956167 -0.01328379 56.8956167 -0.01328379 58.31097186 -0.01422176 C60.19047309 -0.01550079 62.06997432 -0.01679765 63.94947553 -0.01811212 C81.53031666 -0.02948975 99.11107405 -0.0164486 116.69190145 0.00508934 C131.74277919 0.02295775 146.79353347 0.01985285 161.84440899 0.0014143 C179.36683906 -0.02004238 196.88919593 -0.02839137 214.41163731 -0.01613665 C216.28382014 -0.01486259 218.15600299 -0.0136051 220.02818584 -0.01236439 C220.9490843 -0.01174729 221.86998275 -0.01113018 222.81878722 -0.01049438 C229.27568975 -0.00705584 235.73254545 -0.01283737 242.18944073 -0.0222826 C250.06951944 -0.03355746 257.949439 -0.03034815 265.82949972 -0.00915962 C269.84197168 0.00127756 273.8541793 0.0055997 277.86664867 -0.00775623 C309.72328262 -0.10471402 337.99599089 4.32507475 361.76823711 27.52289867 C362.61386211 28.32727367 363.45948711 29.13164867 364.33073711 29.96039867 C365.53729961 31.22883617 365.53729961 31.22883617 366.76823711 32.52289867 C367.76597149 33.52836742 367.76597149 33.52836742 368.78386211 34.55414867 C391.33652473 58.18074761 394.3945222 87.69469143 394.29113579 118.75466156 C394.2819897 122.82837355 394.2961018 126.90202005 394.30705547 130.9757185 C394.3247445 138.93231638 394.32104394 146.88876243 394.30940491 154.845366 C394.30033271 161.31790654 394.29916287 167.79040485 394.30350018 174.26294994 C394.30411311 175.18783549 394.30472604 176.11272104 394.30535755 177.06563342 C394.30663658 178.94513465 394.30793344 180.82463588 394.30924791 182.70413709 C394.32062553 200.28497822 394.30758439 217.86573561 394.28604645 235.44656301 C394.26817804 250.49744075 394.27128294 265.54819503 394.28972149 280.59907055 C394.31117816 298.12150062 394.31952716 315.64385749 394.30727243 333.16629887 C394.30599838 335.0384817 394.30474089 336.91066455 394.30350018 338.7828474 C394.30288307 339.70374586 394.30226597 340.62464431 394.30163017 341.57344878 C394.29819163 348.03035131 394.30397316 354.48720701 394.31341839 360.94410229 C394.32469325 368.824181 394.32148393 376.70410056 394.30029541 384.58416128 C394.28985823 388.59663324 394.28553609 392.60884086 394.29889202 396.62131023 C394.3958498 428.47794418 389.96606104 456.75065245 366.76823711 480.52289867 C365.96386211 481.36852367 365.15948711 482.21414867 364.33073711 483.08539867 C363.48511211 483.88977367 362.63948711 484.69414867 361.76823711 485.52289867 C361.09792461 486.18805492 360.42761211 486.85321117 359.73698711 487.53852367 C336.11038818 510.09118629 306.59644436 513.14918376 275.53647423 513.04579735 C271.46276224 513.03665126 267.38911574 513.05076336 263.31541729 513.06171703 C255.35881941 513.07940606 247.40237336 513.0757055 239.44576979 513.06406647 C232.97322924 513.05499427 226.50073094 513.05382443 220.02818584 513.05816174 C218.64085753 513.05908113 218.64085753 513.05908113 217.22550237 513.06001911 C215.34600114 513.06129814 213.46649991 513.062595 211.5869987 513.06390947 C194.00615757 513.07528709 176.42540018 513.06224595 158.84457278 513.04070801 C143.79369504 513.0228396 128.74294075 513.0259445 113.69206524 513.04438305 C96.16963517 513.06583972 78.6472783 513.07418872 61.12483692 513.06193399 C59.25265409 513.06065994 57.38047124 513.05940245 55.50828838 513.05816174 C54.58738993 513.05754463 53.66649148 513.05692753 52.71768701 513.05629173 C46.26078448 513.05285319 39.80392878 513.05863472 33.3470335 513.06807995 C25.46695479 513.07935481 17.58703523 513.07614549 9.70697451 513.05495697 C5.69450255 513.04451979 1.68229493 513.04019765 -2.33017445 513.05355358 C-34.18680839 513.15051136 -62.45951666 508.7207226 -86.23176289 485.52289867 C-87.50020039 484.31633617 -87.50020039 484.31633617 -88.79426289 483.08539867 C-89.59863789 482.23977367 -90.40301289 481.39414867 -91.23176289 480.52289867 C-91.89691914 479.85258617 -92.56207539 479.18227367 -93.24738789 478.49164867 C-115.8000505 454.86504974 -118.85804797 425.35110592 -118.75466156 394.29113579 C-118.74551548 390.2174238 -118.75962757 386.1437773 -118.77058125 382.07007885 C-118.78827027 374.11348097 -118.78456971 366.15703492 -118.77293068 358.20043135 C-118.76385848 351.7278908 -118.76268864 345.2553925 -118.76702595 338.7828474 C-118.76763888 337.85796186 -118.76825181 336.93307631 -118.76888332 335.98016393 C-118.77016235 334.1006627 -118.77145921 332.22116147 -118.77277368 330.34166026 C-118.78415131 312.76081913 -118.77111016 295.18006174 -118.74957222 277.59923434 C-118.73170381 262.5483566 -118.73480871 247.49760231 -118.75324726 232.4467268 C-118.77470394 214.92429673 -118.78305293 197.40193986 -118.77079821 179.87949848 C-118.76952415 178.00731565 -118.76826666 176.1351328 -118.76702595 174.26294994 C-118.76640885 173.34205149 -118.76579174 172.42115304 -118.76515594 171.47234857 C-118.7617174 165.01544604 -118.76749893 158.55859034 -118.77694416 152.10169506 C-118.78821902 144.22161635 -118.78500971 136.34169679 -118.76382118 128.46163607 C-118.753384 124.44916411 -118.74906186 120.43695649 -118.76241779 116.42448711 C-118.85937558 84.56785317 -114.42958681 56.2951449 -91.23176289 32.52289867 C-90.42738789 31.67727367 -89.62301289 30.83164867 -88.79426289 29.96039867 C-87.94863789 29.15602367 -87.10301289 28.35164867 -86.23176289 27.52289867 C-85.56145039 26.85774242 -84.89113789 26.19258617 -84.20051289 25.50727367 C-60.57391395 2.95461106 -31.05997013 -0.10338641 0 0 Z " fill="#FEFEFE" transform="translate(118.23176288604736,-0.5228986740112305)"/>
<path d="M0 0 C1.25482178 -0.00525696 2.50964355 -0.01051392 3.80249023 -0.01593018 C7.22000181 -0.02681813 10.63696343 -0.02434162 14.05444336 -0.01479292 C17.6456776 -0.00715099 21.23688975 -0.01425443 24.828125 -0.01895142 C30.8568133 -0.02439586 36.88539102 -0.01725196 42.9140625 -0.00292969 C49.86523297 0.01339437 56.81613938 0.00810493 63.76730347 -0.0084089 C69.75570929 -0.02206132 75.74403602 -0.02392515 81.73245239 -0.0160929 C85.30019452 -0.01143694 88.86781289 -0.01073384 92.43554688 -0.02070236 C96.41546746 -0.03104757 100.39509675 -0.01667343 104.375 0 C105.54409912 -0.00607269 106.71319824 -0.01214539 107.91772461 -0.0184021 C116.67864565 0.04939189 124.19677205 1.17521444 131.125 6.88818359 C131.85589844 7.47599609 132.58679688 8.06380859 133.33984375 8.66943359 C135.1875 10.38818359 135.1875 10.38818359 137.1875 13.38818359 C137.8475 13.38818359 138.5075 13.38818359 139.1875 13.38818359 C139.88875 12.50130859 140.59 11.61443359 141.3125 10.70068359 C145.402019 5.58273526 151.06577683 2.5269436 157.1875 0.38818359 C159.83350563 0.13091469 159.83350563 0.13091469 162.72598267 0.12075806 C163.82762756 0.11222809 164.92927246 0.10369812 166.06430054 0.09490967 C167.26334015 0.09581604 168.46237976 0.09672241 169.69775391 0.09765625 C170.96828613 0.09093903 172.23881836 0.0842218 173.54785156 0.07730103 C177.02754127 0.0596608 180.50713255 0.0549463 183.98686266 0.05366945 C186.16511456 0.05224541 188.34334165 0.04797086 190.52158737 0.04267502 C198.13338552 0.02417655 205.74511371 0.01600358 213.35693359 0.01757812 C220.43071457 0.01877732 227.50418933 -0.00228152 234.5778929 -0.0339092 C240.66645245 -0.06015312 246.75491255 -0.07078569 252.84352815 -0.06951106 C256.47293959 -0.06900351 260.1020792 -0.07456999 263.73143387 -0.09586716 C267.78812433 -0.11902161 271.84414005 -0.10967938 275.90087891 -0.09765625 C277.68122025 -0.11451477 277.68122025 -0.11451477 279.49752808 -0.13171387 C289.78235619 -0.05457997 298.793807 2.06529563 306.3984375 9.32568359 C312.39357916 16.23711328 315.29912416 22.734804 315.32794189 31.86419678 C315.33365204 32.95190369 315.33936218 34.0396106 315.34524536 35.16027832 C315.34636322 36.34375854 315.34748108 37.52723877 315.34863281 38.74658203 C315.35359772 40.0008197 315.35856262 41.25505737 315.36367798 42.54730225 C315.37576507 45.9814008 315.38323917 49.41543863 315.38768864 52.8495512 C315.39062601 54.9982981 315.39473207 57.14703975 315.39919281 59.295784 C315.41285763 66.02818391 315.42252908 72.76057172 315.4263947 79.49298453 C315.43087218 87.24693065 315.4484098 95.0007002 315.4773953 102.75459266 C315.49905973 108.75988361 315.50910153 114.76512506 315.51043582 120.77045465 C315.51148051 124.35169543 315.5173161 127.93277001 315.53525543 131.51396942 C315.5549015 135.51348975 315.55042826 139.51264365 315.54394531 143.51220703 C315.5531601 144.68759033 315.56237488 145.86297363 315.5718689 147.07397461 C315.52734562 155.85995386 314.41730294 163.37704099 308.6875 170.32568359 C308.0996875 171.05658203 307.511875 171.78748047 306.90625 172.54052734 C305.1875 174.38818359 305.1875 174.38818359 302.1875 176.38818359 C302.1875 177.04818359 302.1875 177.70818359 302.1875 178.38818359 C303.074375 179.08943359 303.96125 179.79068359 304.875 180.51318359 C310.56114175 185.08360486 313.83523723 191.25583227 315.1875 198.38818359 C315.48654467 202.5726904 315.48126753 206.74801622 315.47802734 210.94189453 C315.48474457 212.19321167 315.49146179 213.44452881 315.49838257 214.73376465 C315.51408265 218.15140972 315.52073513 221.56881169 315.52201414 224.98647594 C315.52344038 227.12688157 315.52771894 229.26726208 315.53300858 231.40766144 C315.55148808 238.88979192 315.55968199 246.37185136 315.55810547 253.85400391 C315.55690533 260.80399658 315.57798772 267.75367807 315.6095928 274.70359206 C315.63583729 280.69028218 315.64646933 286.6768712 315.64519465 292.66361833 C315.64468732 296.23040366 315.65024236 299.79691233 315.67155075 303.36363983 C315.69470772 307.34827057 315.68536264 311.33221451 315.67333984 315.31689453 C315.68457886 316.48194519 315.69581787 317.64699585 315.70739746 318.84735107 C315.62839779 329.19526444 313.41206438 338.05466347 306.109375 345.66943359 C297.09010413 353.73544819 288.32520895 354.68753227 276.60205078 354.6628418 C275.34752106 354.66795273 274.09299133 354.67306366 272.80044556 354.67832947 C269.37466506 354.68981572 265.94912721 354.69230417 262.52334452 354.68976617 C259.65576387 354.68869267 256.78820528 354.69358954 253.92062938 354.69837159 C247.15100811 354.70944831 240.38144234 354.70991469 233.61181641 354.70385742 C226.64592999 354.69782003 219.68024568 354.7101268 212.71439373 354.73142749 C206.71754556 354.74908563 200.72076147 354.75503819 194.72388828 354.75178975 C191.14939744 354.74998328 187.57505076 354.75254898 184.00058365 354.76650429 C180.01083662 354.78149944 176.02149673 354.77207585 172.03173828 354.76049805 C170.85949707 354.76814178 169.68725586 354.77578552 168.47949219 354.78366089 C159.70603972 354.7275164 152.18843181 353.60956679 145.25 347.88818359 C144.51910156 347.30037109 143.78820312 346.71255859 143.03515625 346.10693359 C141.1875 344.38818359 141.1875 344.38818359 139.1875 341.38818359 C136.05903247 342.11477834 136.05903247 342.11477834 134.5 344.63818359 C129.9787081 350.01485505 124.07564837 353.08941717 117.1875 354.38818359 C112.9921472 354.68271073 108.80641247 354.67169672 104.60205078 354.6628418 C103.34752106 354.66795273 102.09299133 354.67306366 100.80044556 354.67832947 C97.37466506 354.68981572 93.94912721 354.69230417 90.52334452 354.68976617 C87.65576387 354.68869267 84.78820528 354.69358954 81.92062938 354.69837159 C75.15100811 354.70944831 68.38144234 354.70991469 61.61181641 354.70385742 C54.64592999 354.69782003 47.68024568 354.7101268 40.71439373 354.73142749 C34.71754556 354.74908563 28.72076147 354.75503819 22.72388828 354.75178975 C19.14939744 354.74998328 15.57505076 354.75254898 12.00058365 354.76650429 C8.01083662 354.78149944 4.02149673 354.77207585 0.03173828 354.76049805 C-1.14050293 354.76814178 -2.31274414 354.77578552 -3.52050781 354.78366089 C-14.64476369 354.71247276 -22.74309045 352.24524026 -30.8125 344.38818359 C-38.32925247 335.29741031 -39.11251399 327.09477327 -39.11889648 315.63500977 C-39.13138176 313.72636391 -39.13138176 313.72636391 -39.14411926 311.77915955 C-39.16596857 308.30379785 -39.17485009 304.82852409 -39.17994571 301.35310149 C-39.1836004 299.17719162 -39.18984616 297.0013044 -39.1969471 294.82540321 C-39.22140758 287.22123843 -39.23448628 279.61714155 -39.23803711 272.01293945 C-39.24167058 264.94585199 -39.27156081 257.87919926 -39.31344169 250.81224459 C-39.34822884 244.72705687 -39.36358699 238.64201268 -39.36428314 232.55672628 C-39.36507305 228.93009819 -39.37367844 225.30391368 -39.40228081 221.67738914 C-39.43350891 217.62779836 -39.42436187 213.57923309 -39.41186523 209.52954102 C-39.42669952 208.3421936 -39.44153381 207.15484619 -39.45681763 205.93151855 C-39.3658615 195.55093336 -36.00262349 188.35600018 -29.14453125 180.66552734 C-27.8125 179.38818359 -27.8125 179.38818359 -25.8125 178.38818359 C-25.8125 177.72818359 -25.8125 177.06818359 -25.8125 176.38818359 C-26.699375 175.68693359 -27.58625 174.98568359 -28.5 174.26318359 C-34.18426024 169.69427465 -37.46464151 163.51984956 -38.8125 156.38818359 C-39.10722514 152.19284911 -39.09601312 148.00708974 -39.0871582 143.80273438 C-39.09226913 142.54820465 -39.09738007 141.29367493 -39.10264587 140.00112915 C-39.11413212 136.57534866 -39.11662058 133.1498108 -39.11408257 129.72402811 C-39.11300907 126.85644747 -39.11790595 123.98888887 -39.122688 121.12131298 C-39.13376472 114.35169171 -39.13423109 107.58212594 -39.12817383 100.8125 C-39.12213643 93.84661358 -39.1344432 86.88092927 -39.1557439 79.91507733 C-39.17340204 73.91822915 -39.17935459 67.92144506 -39.17610615 61.92457187 C-39.17429968 58.35008103 -39.17686539 54.77573436 -39.19082069 51.20126724 C-39.20581585 47.21152021 -39.19639226 43.22218032 -39.18481445 39.23242188 C-39.19245819 38.06018066 -39.20010193 36.88793945 -39.20797729 35.68017578 C-39.14100164 25.21418334 -37.04472793 17.14401173 -29.8125 9.38818359 C-20.97331077 1.14573288 -11.75477879 -0.06105826 0 0 Z " fill="#FDFDFD" transform="translate(117.8125,78.61181640625)"/>
<path d="M0 0 C1.05260513 -0.00997513 2.10521027 -0.01995026 3.18971252 -0.03022766 C4.33421875 -0.03089233 5.47872498 -0.03155701 6.65791321 -0.03224182 C8.47833885 -0.0447271 8.47833885 -0.0447271 10.33554077 -0.0574646 C13.65819488 -0.07741568 16.98059853 -0.08820275 20.30329108 -0.09329104 C22.38304013 -0.09694128 24.46276534 -0.10318491 26.54250526 -0.11029243 C33.8095009 -0.1347752 41.07642532 -0.14783541 48.34346008 -0.15138245 C55.09809448 -0.15501254 61.85227306 -0.18487259 68.60676831 -0.22678703 C74.42015645 -0.26158586 80.2333943 -0.27693257 86.04688579 -0.27762848 C89.51258502 -0.27841832 92.97782003 -0.2870195 96.44341087 -0.31562614 C100.31586856 -0.34687682 104.18768214 -0.33770136 108.06025696 -0.32521057 C109.19464203 -0.34004486 110.3290271 -0.35487915 111.49778748 -0.37016296 C118.85147705 -0.30285397 124.58934342 0.9988942 130.68257141 5.27415466 C135.7440544 10.61063229 138.92228911 16.07477742 138.94999695 23.56034851 C138.9627919 25.12880272 138.9627919 25.12880272 138.97584534 26.72894287 C138.97448578 28.43403267 138.97448578 28.43403267 138.97309875 30.17356873 C138.97981598 31.37903854 138.9865332 32.58450836 138.99345398 33.82650757 C139.0091828 37.12637453 139.01580826 40.42598975 139.01708555 43.72587681 C139.01850967 45.79087711 139.02278426 47.85585124 139.02807999 49.92084503 C139.04657352 57.13482327 139.05475175 64.34872772 139.05317688 71.56272888 C139.05197675 78.27074045 139.07305525 84.9784296 139.10466421 91.68635964 C139.13088543 97.45811854 139.14154169 103.22977254 139.14026606 109.00159049 C139.13975799 112.44314908 139.14535406 115.88442122 139.16662216 119.3259201 C139.18626754 123.16993764 139.18044825 127.01313101 139.16841125 130.85716248 C139.17965027 131.98579208 139.19088928 133.11442169 139.20246887 134.2772522 C139.13748029 142.46507286 137.18008393 148.04759501 133.05757141 155.02415466 C125.73933816 161.95721775 117.73258658 163.00499937 108.0160675 162.90525818 C106.17509743 162.91599113 106.17509743 162.91599113 104.29693604 162.92694092 C100.95975348 162.94086665 97.62414195 162.93261159 94.28708982 162.91285062 C90.7794742 162.89635029 87.27190521 162.90529237 83.76426697 162.91036987 C77.87850672 162.91487705 71.99306571 162.89910416 66.1073761 162.87107849 C59.31910385 162.83900269 52.53140608 162.83905819 45.74309289 162.85629326 C39.18842889 162.87219651 32.63397394 162.86540244 26.079319 162.84835625 C23.3003693 162.84151422 20.52158861 162.84248853 17.74264145 162.8499012 C13.8583029 162.85903618 9.97454707 162.83494699 6.09028625 162.80760193 C4.37567955 162.81739075 4.37567955 162.81739075 2.62643433 162.82737732 C-4.97676962 162.73654762 -10.33630446 161.62956184 -16.30570984 156.59837341 C-16.74270203 156.05825623 -17.17969421 155.51813904 -17.62992859 154.96165466 C-18.30475281 154.16308044 -18.30475281 154.16308044 -18.99320984 153.34837341 C-23.53346737 146.2366426 -23.75852049 140.25871063 -23.73735046 131.96409607 C-23.74582001 130.73882706 -23.75428955 129.51355804 -23.76301575 128.25115967 C-23.78234876 124.90585487 -23.78816694 121.56110905 -23.78626823 118.21578646 C-23.78614812 115.41529662 -23.794729 112.61485832 -23.80304575 109.81438291 C-23.82224824 103.20295639 -23.82517527 96.59165611 -23.81840515 89.98020935 C-23.81176719 83.17777897 -23.83462549 76.37589121 -23.87171888 69.57357085 C-23.90248773 63.71683033 -23.91376816 57.86026372 -23.90988207 52.00344408 C-23.90782186 48.51267972 -23.91317958 45.02233777 -23.93777466 41.53165054 C-23.96432419 37.63522109 -23.95025911 33.73949394 -23.93266296 29.84300232 C-23.95255783 28.12671883 -23.95255783 28.12671883 -23.97285461 26.37576294 C-23.88685143 18.15929065 -22.06351764 12.1266667 -16.25492859 6.15306091 C-15.61555359 5.71864685 -14.97617859 5.28423279 -14.31742859 4.83665466 C-13.67805359 4.38419373 -13.03867859 3.93173279 -12.37992859 3.46556091 C-8.24465728 1.07681518 -4.77993009 0.0243855 0 0 Z " fill="#FDFDFD" transform="translate(112.31742858886719,260.72584533691406)"/>
<path d="M0 0 C1.05260513 -0.00997513 2.10521027 -0.01995026 3.18971252 -0.03022766 C4.33421875 -0.03089233 5.47872498 -0.03155701 6.65791321 -0.03224182 C8.47833885 -0.0447271 8.47833885 -0.0447271 10.33554077 -0.0574646 C13.65819488 -0.07741568 16.98059853 -0.08820275 20.30329108 -0.09329104 C22.38304013 -0.09694128 24.46276534 -0.10318491 26.54250526 -0.11029243 C33.8095009 -0.1347752 41.07642532 -0.14783541 48.34346008 -0.15138245 C55.09809448 -0.15501254 61.85227306 -0.18487259 68.60676831 -0.22678703 C74.42015645 -0.26158586 80.2333943 -0.27693257 86.04688579 -0.27762848 C89.51258502 -0.27841832 92.97782003 -0.2870195 96.44341087 -0.31562614 C100.31586856 -0.34687682 104.18768214 -0.33770136 108.06025696 -0.32521057 C109.19464203 -0.34004486 110.3290271 -0.35487915 111.49778748 -0.37016296 C118.84518254 -0.30291159 124.60030783 0.98878703 130.68257141 5.27415466 C135.43615494 10.35768408 138.92088926 15.42080203 138.95672607 22.5092926 C138.9667012 23.56893723 138.97667633 24.62858185 138.98695374 25.72033691 C138.98761841 26.87778915 138.98828308 28.03524139 138.9889679 29.22776794 C138.99729141 30.45099258 139.00561493 31.67421722 139.01419067 32.93450928 C139.03416405 36.28821271 139.0449332 39.64166779 139.05001712 42.99540949 C139.05366449 45.09408168 139.05990672 47.19273015 139.06701851 49.29139328 C139.09151413 56.6232228 139.10456376 63.95498164 139.10810852 71.28684998 C139.11173714 78.10337794 139.14158328 84.9194538 139.1835131 91.73584378 C139.21831164 97.60016662 139.23365866 103.46434045 139.23435456 109.32876575 C139.23514456 112.82577727 139.24375314 116.32232879 139.27235222 119.81923294 C139.30360138 123.72772075 139.29442756 127.63557033 139.28193665 131.54417419 C139.30418808 133.26213448 139.30418808 133.26213448 139.32688904 135.01480103 C139.25438317 143.00947969 137.6466461 149.72767605 132.27524471 155.88824654 C125.00435821 162.44444012 117.69606498 162.72098144 108.38838196 162.70994568 C107.16471924 162.72002151 105.94105652 162.73009735 104.68031311 162.74047852 C101.33908188 162.76402443 97.99841011 162.77400692 94.65713477 162.77592587 C92.56496613 162.77806533 90.47285529 162.78448324 88.38070107 162.79241753 C81.06828238 162.82013272 73.75602721 162.83242796 66.44355774 162.83006287 C59.64901848 162.82826187 52.85519478 162.85990075 46.06083649 162.90729386 C40.20917358 162.946643 34.35774337 162.96260946 28.50594932 162.96069664 C25.01897552 162.9599352 21.53263822 162.96829017 18.04579735 163.00023079 C14.15190072 163.03492983 10.25897001 163.02096005 6.36494446 163.00291443 C5.22435074 163.01977295 4.08375702 163.03663147 2.90859985 163.05400085 C-4.86090744 162.96281939 -10.21946771 161.17379298 -16.31742859 156.27415466 C-21.00173253 151.26246101 -23.55663958 145.80621764 -23.59158325 138.95672607 C-23.60155838 137.90412094 -23.61153351 136.85151581 -23.62181091 135.76701355 C-23.62247559 134.62250732 -23.62314026 133.4780011 -23.62382507 132.29881287 C-23.63214859 131.08519577 -23.64047211 129.87157867 -23.64904785 128.6211853 C-23.66899893 125.2985312 -23.679786 121.97612754 -23.6848743 118.65343499 C-23.68852453 116.57368594 -23.69476816 114.49396074 -23.70187569 112.41422081 C-23.72635845 105.14722517 -23.73941866 97.88030075 -23.7429657 90.61326599 C-23.74659579 83.85863159 -23.77645584 77.10445301 -23.81837028 70.34995776 C-23.85316911 64.53656962 -23.86851582 58.72333178 -23.86921173 52.90984029 C-23.87000157 49.44414105 -23.87860275 45.97890605 -23.9072094 42.5133152 C-23.93846007 38.64085752 -23.92928461 34.76904394 -23.91679382 30.89646912 C-23.93162811 29.76208405 -23.9464624 28.62769897 -23.96174622 27.4589386 C-23.89443722 20.10524902 -22.59268905 14.36738265 -18.31742859 8.27415466 C-12.96735905 3.19978017 -7.501285 0.03826889 0 0 Z " fill="#FCFCFC" transform="translate(284.3174285888672,260.72584533691406)"/>
<path d="M0 0 C1.05964462 -0.00997513 2.11928925 -0.01995026 3.21104431 -0.03022766 C4.94722267 -0.03122467 4.94722267 -0.03122467 6.71847534 -0.03224182 C7.94169998 -0.04056534 9.16492462 -0.04888885 10.42521667 -0.0574646 C13.77892011 -0.07743798 17.13237519 -0.08820712 20.48611689 -0.09329104 C22.58478908 -0.09693842 24.68343755 -0.10318065 26.78210068 -0.11029243 C34.1139302 -0.13478806 41.44568904 -0.14783769 48.77755737 -0.15138245 C55.59408534 -0.15501107 62.4101612 -0.1848572 69.22655118 -0.22678703 C75.09087402 -0.26158556 80.95504785 -0.27693258 86.81947315 -0.27762848 C90.31648466 -0.27841849 93.81303619 -0.28702706 97.30994034 -0.31562614 C101.21842815 -0.3468753 105.12627773 -0.33770149 109.03488159 -0.32521057 C110.18018845 -0.34004486 111.3254953 -0.35487915 112.50550842 -0.37016296 C120.69677632 -0.29587418 127.57779318 1.36384966 133.70732307 7.08821964 C138.01334098 11.74920498 140.00661086 16.22611816 140.03901672 22.62954712 C140.04899185 23.69056641 140.05896698 24.75158569 140.06924438 25.84475708 C140.06990906 26.99861404 140.07057373 28.15247101 140.07125854 29.34129333 C140.07958206 30.564664 140.08790558 31.78803467 140.09648132 33.04847717 C140.11643318 36.39798936 140.12721961 39.7472531 140.13230777 43.09680343 C140.13595786 45.19330336 140.14220142 47.28977964 140.14930916 49.38627052 C140.17379224 56.71162077 140.18685221 64.03690037 140.19039917 71.36228943 C140.19402933 78.17145381 140.22388982 84.98016604 140.26580375 91.78919238 C140.30060099 97.64928914 140.31594926 103.5092368 140.31664521 109.36943609 C140.3174351 112.86307946 140.32603867 116.35626234 140.35464287 119.8497982 C140.3858901 123.75338755 140.37671882 127.65633781 140.36422729 131.56004333 C140.38647873 133.27564705 140.38647873 133.27564705 140.40917969 135.02590942 C140.34218008 142.40353705 139.05981708 148.1623297 134.76486206 154.27415466 C129.4141443 159.34820733 123.94918312 162.51003807 116.44743347 162.54830933 C115.39482834 162.55828445 114.34222321 162.56825958 113.25772095 162.57853699 C111.54096161 162.579534 111.54096161 162.579534 109.78952026 162.58055115 C107.96909462 162.59303642 107.96909462 162.59303642 106.1118927 162.60577393 C102.7892386 162.625725 99.46683494 162.63651208 96.14414239 162.64160037 C94.06439334 162.64525061 91.98466813 162.65149424 89.90492821 162.65860176 C82.63793257 162.68308452 75.37100815 162.69614473 68.10397339 162.69969177 C61.34933899 162.70332186 54.59516041 162.73318191 47.84066516 162.77509636 C42.02727702 162.80989519 36.21403917 162.82524189 30.40054768 162.82593781 C26.93484845 162.82672765 23.46961344 162.83532883 20.0040226 162.86393547 C16.13156491 162.89518615 12.25975133 162.88601068 8.38717651 162.8735199 C7.25279144 162.88835419 6.11840637 162.90318848 4.949646 162.91847229 C-2.41035472 162.85110553 -8.13094084 161.53924708 -14.23513794 157.27415466 C-21.76369138 149.45009225 -22.53536923 141.7729054 -22.54153442 131.27708435 C-22.54985794 130.0730748 -22.55818146 128.86906525 -22.5667572 127.62857056 C-22.58668537 124.33700558 -22.59749093 121.04558732 -22.60258365 117.75397015 C-22.6062368 115.69314424 -22.61248185 113.6323423 -22.61958504 111.57152557 C-22.64405472 104.36936382 -22.65712568 97.16727382 -22.66067505 89.96507263 C-22.66430664 83.27233177 -22.69418085 76.5800505 -22.73607963 69.88744998 C-22.77087876 64.12499654 -22.78622515 58.3626947 -22.78692108 52.600137 C-22.78771075 49.16575001 -22.7963044 45.73183156 -22.82491875 42.29755402 C-22.85187065 38.4609005 -22.84699434 34.62550397 -22.83450317 30.7888031 C-22.84933746 29.66533981 -22.86417175 28.54187653 -22.87945557 27.3843689 C-22.8118374 20.06518197 -21.49731246 14.33447922 -17.23513794 8.27415466 C-12.1523453 3.52023125 -7.08797542 0.03583421 0 0 Z " fill="#FDFDFD" transform="translate(283.2351379394531,88.72584533691406)"/>
<path d="M0 0 C1.25482178 -0.00525696 2.50964355 -0.01051392 3.80249023 -0.01593018 C7.22000181 -0.02681813 10.63696343 -0.02434162 14.05444336 -0.01479292 C17.6456776 -0.00715099 21.23688975 -0.01425443 24.828125 -0.01895142 C30.8568133 -0.02439586 36.88539102 -0.01725196 42.9140625 -0.00292969 C49.86523297 0.01339437 56.81613938 0.00810493 63.76730347 -0.0084089 C69.75570929 -0.02206132 75.74403602 -0.02392515 81.73245239 -0.0160929 C85.30019452 -0.01143694 88.86781289 -0.01073384 92.43554688 -0.02070236 C96.41546746 -0.03104757 100.39509675 -0.01667343 104.375 0 C105.54409912 -0.00607269 106.71319824 -0.01214539 107.91772461 -0.0184021 C116.67864565 0.04939189 124.19677205 1.17521444 131.125 6.88818359 C131.85589844 7.47599609 132.58679688 8.06380859 133.33984375 8.66943359 C135.1875 10.38818359 135.1875 10.38818359 137.1875 13.38818359 C137.8475 13.38818359 138.5075 13.38818359 139.1875 13.38818359 C139.88875 12.50130859 140.59 11.61443359 141.3125 10.70068359 C145.402019 5.58273526 151.06577683 2.5269436 157.1875 0.38818359 C159.83350563 0.13091469 159.83350563 0.13091469 162.72598267 0.12075806 C163.82762756 0.11222809 164.92927246 0.10369812 166.06430054 0.09490967 C167.26334015 0.09581604 168.46237976 0.09672241 169.69775391 0.09765625 C170.96828613 0.09093903 172.23881836 0.0842218 173.54785156 0.07730103 C177.02754127 0.0596608 180.50713255 0.0549463 183.98686266 0.05366945 C186.16511456 0.05224541 188.34334165 0.04797086 190.52158737 0.04267502 C198.13338552 0.02417655 205.74511371 0.01600358 213.35693359 0.01757812 C220.43071457 0.01877732 227.50418933 -0.00228152 234.5778929 -0.0339092 C240.66645245 -0.06015312 246.75491255 -0.07078569 252.84352815 -0.06951106 C256.47293959 -0.06900351 260.1020792 -0.07456999 263.73143387 -0.09586716 C267.78812433 -0.11902161 271.84414005 -0.10967938 275.90087891 -0.09765625 C277.68122025 -0.11451477 277.68122025 -0.11451477 279.49752808 -0.13171387 C289.78235619 -0.05457997 298.793807 2.06529563 306.3984375 9.32568359 C312.39357916 16.23711328 315.29912416 22.734804 315.32794189 31.86419678 C315.33365204 32.95190369 315.33936218 34.0396106 315.34524536 35.16027832 C315.34636322 36.34375854 315.34748108 37.52723877 315.34863281 38.74658203 C315.35359772 40.0008197 315.35856262 41.25505737 315.36367798 42.54730225 C315.37576507 45.9814008 315.38323917 49.41543863 315.38768864 52.8495512 C315.39062601 54.9982981 315.39473207 57.14703975 315.39919281 59.295784 C315.41285763 66.02818391 315.42252908 72.76057172 315.4263947 79.49298453 C315.43087218 87.24693065 315.4484098 95.0007002 315.4773953 102.75459266 C315.49905973 108.75988361 315.50910153 114.76512506 315.51043582 120.77045465 C315.51148051 124.35169543 315.5173161 127.93277001 315.53525543 131.51396942 C315.5549015 135.51348975 315.55042826 139.51264365 315.54394531 143.51220703 C315.5531601 144.68759033 315.56237488 145.86297363 315.5718689 147.07397461 C315.52734562 155.85995386 314.41730294 163.37704099 308.6875 170.32568359 C308.0996875 171.05658203 307.511875 171.78748047 306.90625 172.54052734 C305.1875 174.38818359 305.1875 174.38818359 302.1875 176.38818359 C302.1875 177.04818359 302.1875 177.70818359 302.1875 178.38818359 C303.074375 179.08943359 303.96125 179.79068359 304.875 180.51318359 C310.56114175 185.08360486 313.83523723 191.25583227 315.1875 198.38818359 C315.48654467 202.5726904 315.48126753 206.74801622 315.47802734 210.94189453 C315.48474457 212.19321167 315.49146179 213.44452881 315.49838257 214.73376465 C315.51408265 218.15140972 315.52073513 221.56881169 315.52201414 224.98647594 C315.52344038 227.12688157 315.52771894 229.26726208 315.53300858 231.40766144 C315.55148808 238.88979192 315.55968199 246.37185136 315.55810547 253.85400391 C315.55690533 260.80399658 315.57798772 267.75367807 315.6095928 274.70359206 C315.63583729 280.69028218 315.64646933 286.6768712 315.64519465 292.66361833 C315.64468732 296.23040366 315.65024236 299.79691233 315.67155075 303.36363983 C315.69470772 307.34827057 315.68536264 311.33221451 315.67333984 315.31689453 C315.68457886 316.48194519 315.69581787 317.64699585 315.70739746 318.84735107 C315.62839779 329.19526444 313.41206438 338.05466347 306.109375 345.66943359 C297.09010413 353.73544819 288.32520895 354.68753227 276.60205078 354.6628418 C275.34752106 354.66795273 274.09299133 354.67306366 272.80044556 354.67832947 C269.37466506 354.68981572 265.94912721 354.69230417 262.52334452 354.68976617 C259.65576387 354.68869267 256.78820528 354.69358954 253.92062938 354.69837159 C247.15100811 354.70944831 240.38144234 354.70991469 233.61181641 354.70385742 C226.64592999 354.69782003 219.68024568 354.7101268 212.71439373 354.73142749 C206.71754556 354.74908563 200.72076147 354.75503819 194.72388828 354.75178975 C191.14939744 354.74998328 187.57505076 354.75254898 184.00058365 354.76650429 C180.01083662 354.78149944 176.02149673 354.77207585 172.03173828 354.76049805 C170.85949707 354.76814178 169.68725586 354.77578552 168.47949219 354.78366089 C159.70603972 354.7275164 152.18843181 353.60956679 145.25 347.88818359 C144.51910156 347.30037109 143.78820312 346.71255859 143.03515625 346.10693359 C141.1875 344.38818359 141.1875 344.38818359 139.1875 341.38818359 C136.05903247 342.11477834 136.05903247 342.11477834 134.5 344.63818359 C129.9787081 350.01485505 124.07564837 353.08941717 117.1875 354.38818359 C112.9921472 354.68271073 108.80641247 354.67169672 104.60205078 354.6628418 C103.34752106 354.66795273 102.09299133 354.67306366 100.80044556 354.67832947 C97.37466506 354.68981572 93.94912721 354.69230417 90.52334452 354.68976617 C87.65576387 354.68869267 84.78820528 354.69358954 81.92062938 354.69837159 C75.15100811 354.70944831 68.38144234 354.70991469 61.61181641 354.70385742 C54.64592999 354.69782003 47.68024568 354.7101268 40.71439373 354.73142749 C34.71754556 354.74908563 28.72076147 354.75503819 22.72388828 354.75178975 C19.14939744 354.74998328 15.57505076 354.75254898 12.00058365 354.76650429 C8.01083662 354.78149944 4.02149673 354.77207585 0.03173828 354.76049805 C-1.14050293 354.76814178 -2.31274414 354.77578552 -3.52050781 354.78366089 C-14.64476369 354.71247276 -22.74309045 352.24524026 -30.8125 344.38818359 C-38.32925247 335.29741031 -39.11251399 327.09477327 -39.11889648 315.63500977 C-39.13138176 313.72636391 -39.13138176 313.72636391 -39.14411926 311.77915955 C-39.16596857 308.30379785 -39.17485009 304.82852409 -39.17994571 301.35310149 C-39.1836004 299.17719162 -39.18984616 297.0013044 -39.1969471 294.82540321 C-39.22140758 287.22123843 -39.23448628 279.61714155 -39.23803711 272.01293945 C-39.24167058 264.94585199 -39.27156081 257.87919926 -39.31344169 250.81224459 C-39.34822884 244.72705687 -39.36358699 238.64201268 -39.36428314 232.55672628 C-39.36507305 228.93009819 -39.37367844 225.30391368 -39.40228081 221.67738914 C-39.43350891 217.62779836 -39.42436187 213.57923309 -39.41186523 209.52954102 C-39.42669952 208.3421936 -39.44153381 207.15484619 -39.45681763 205.93151855 C-39.3658615 195.55093336 -36.00262349 188.35600018 -29.14453125 180.66552734 C-27.8125 179.38818359 -27.8125 179.38818359 -25.8125 178.38818359 C-25.8125 177.72818359 -25.8125 177.06818359 -25.8125 176.38818359 C-26.699375 175.68693359 -27.58625 174.98568359 -28.5 174.26318359 C-34.18426024 169.69427465 -37.46464151 163.51984956 -38.8125 156.38818359 C-39.10722514 152.19284911 -39.09601312 148.00708974 -39.0871582 143.80273438 C-39.09226913 142.54820465 -39.09738007 141.29367493 -39.10264587 140.00112915 C-39.11413212 136.57534866 -39.11662058 133.1498108 -39.11408257 129.72402811 C-39.11300907 126.85644747 -39.11790595 123.98888887 -39.122688 121.12131298 C-39.13376472 114.35169171 -39.13423109 107.58212594 -39.12817383 100.8125 C-39.12213643 93.84661358 -39.1344432 86.88092927 -39.1557439 79.91507733 C-39.17340204 73.91822915 -39.17935459 67.92144506 -39.17610615 61.92457187 C-39.17429968 58.35008103 -39.17686539 54.77573436 -39.19082069 51.20126724 C-39.20581585 47.21152021 -39.19639226 43.22218032 -39.18481445 39.23242188 C-39.19245819 38.06018066 -39.20010193 36.88793945 -39.20797729 35.68017578 C-39.14100164 25.21418334 -37.04472793 17.14401173 -29.8125 9.38818359 C-20.97331077 1.14573288 -11.75477879 -0.06105826 0 0 Z M-23.6875 18.32568359 C-24.24179688 18.97408203 -24.79609375 19.62248047 -25.3671875 20.29052734 C-28.13952373 24.31416128 -29.0620992 27.891393 -29.08665466 32.74357605 C-29.09662979 33.80459534 -29.10660492 34.86561462 -29.11688232 35.95878601 C-29.117547 37.11264297 -29.11821167 38.26649994 -29.11889648 39.45532227 C-29.12722 40.67869293 -29.13554352 41.9020636 -29.14411926 43.1625061 C-29.16407111 46.51201829 -29.17485755 49.86128203 -29.17994571 53.21083236 C-29.1835958 55.30733229 -29.18983936 57.40380857 -29.1969471 59.50029945 C-29.22143018 66.8256497 -29.23449015 74.1509293 -29.23803711 81.47631836 C-29.24166727 88.28548274 -29.27152776 95.09419497 -29.31344169 101.90322131 C-29.34823893 107.76331807 -29.3635872 113.62326574 -29.36428314 119.48346502 C-29.36507304 122.97710839 -29.37367661 126.47029127 -29.40228081 129.96382713 C-29.43352803 133.86741648 -29.42435676 137.77036674 -29.41186523 141.67407227 C-29.42669952 142.81780807 -29.44153381 143.96154388 -29.45681763 145.13993835 C-29.38981802 152.51756598 -28.10745502 158.27635863 -23.8125 164.38818359 C-18.45633669 169.46740024 -12.99146135 172.62807516 -5.48161316 172.65560913 C-3.89836998 172.66840408 -3.89836998 172.66840408 -2.28314209 172.68145752 C-0.56166962 172.68009796 -0.56166962 172.68009796 1.19458008 172.67871094 C2.41140976 172.68542816 3.62823944 172.69214539 4.88194275 172.69906616 C8.21273259 172.71479487 11.54327305 172.72142038 14.8740828 172.72269773 C16.9578363 172.72412164 19.04156386 172.72839581 21.1253109 172.73369217 C28.40297473 172.7521843 35.68056541 172.76036394 42.95825195 172.75878906 C49.72876616 172.75758836 56.49896122 172.77867855 63.2693947 172.81027639 C69.09294208 172.83648088 74.91638552 172.8471546 80.73999137 172.84587824 C84.213375 172.84536976 87.68647497 172.8509889 91.15979958 172.87223434 C95.03740372 172.89530592 98.91457484 172.88607028 102.79223633 172.87402344 C104.50459976 172.89088196 104.50459976 172.89088196 106.2515564 172.90808105 C114.45222271 172.84342117 119.84010939 171.36364192 126 165.88818359 C130.6537492 160.56961308 133.42461275 156.33153455 133.46165466 149.070755 C133.47162979 148.01814987 133.48160492 146.96554474 133.49188232 145.88104248 C133.492547 144.73653625 133.49321167 143.59203003 133.49389648 142.4128418 C133.50638176 140.59241615 133.50638176 140.59241615 133.51911926 138.73521423 C133.53907034 135.41256013 133.54985741 132.09015647 133.55494571 128.76746392 C133.55859594 126.68771487 133.56483958 124.60798967 133.5719471 122.52824974 C133.59642986 115.2612541 133.60949007 107.99432968 133.61303711 100.72729492 C133.6166672 93.97266052 133.64652725 87.21848194 133.68844169 80.46398669 C133.72324052 74.65059855 133.73858723 68.83736071 133.73928314 63.02386922 C133.74007298 59.55816998 133.74867416 56.09293498 133.77728081 52.62734413 C133.80853148 48.75488645 133.79935602 44.88307287 133.78686523 41.01049805 C133.80169952 39.87611298 133.81653381 38.74172791 133.83181763 37.57296753 C133.76450864 30.21927795 132.46276047 24.48141158 128.1875 18.38818359 C122.81584148 13.29333263 117.34823906 10.1481435 109.81864929 10.12075806 C108.75473969 10.11222809 107.69083008 10.10369812 106.59468079 10.09490967 C105.43768173 10.09581604 104.28068268 10.09672241 103.08862305 10.09765625 C101.24874817 10.08758041 101.24874817 10.08758041 99.3717041 10.07730103 C96.01405622 10.0615717 92.65665574 10.05494677 89.2989881 10.05366945 C87.19848372 10.0522456 85.09800507 10.04797153 82.9975071 10.04267502 C75.6614887 10.02418262 68.32554288 10.01600328 60.98950195 10.01757812 C54.16445724 10.01877884 47.33972912 9.99768843 40.51476449 9.9660908 C34.64450848 9.93988726 28.77435559 9.92921255 22.90404159 9.93048894 C19.40271319 9.93099745 15.90166619 9.92537681 12.40039635 9.90413284 C8.49166016 9.88106328 4.58335361 9.89029634 0.67456055 9.90234375 C-0.47636581 9.89110474 -1.62729218 9.87986572 -2.81309509 9.86828613 C-11.33840667 9.93497832 -17.98702898 11.4387509 -23.6875 18.32568359 Z M147.93359375 18.83740234 C147.50175781 19.57603516 147.06992187 20.31466797 146.625 21.07568359 C146.16996094 21.82205078 145.71492187 22.56841797 145.24609375 23.33740234 C143.4462661 26.82415332 143.0585266 29.57018097 143.04032898 33.43386841 C143.03317368 34.47675522 143.02601837 35.51964203 143.01864624 36.59413147 C143.01595734 37.73804855 143.01326843 38.88196564 143.01049805 40.06054688 C143.00392685 41.26572464 142.99735565 42.4709024 142.99058533 43.71260071 C142.97083389 47.71123502 142.95918183 51.70982919 142.94921875 55.70849609 C142.94516996 57.08737076 142.941053 58.46624522 142.93686867 59.84511948 C142.91781766 66.32657284 142.90358876 72.80801485 142.8952567 79.28949082 C142.88549658 86.75769169 142.8592091 94.2255952 142.81875581 101.69369137 C142.78852651 107.47388963 142.77378123 113.25400302 142.77047569 119.03427875 C142.76813213 122.48259296 142.75926389 125.9305895 142.73401451 129.37881851 C142.70625314 133.23245842 142.71058573 137.08571225 142.7175293 140.93945312 C142.69831421 142.63711067 142.69831421 142.63711067 142.67871094 144.36906433 C142.7324555 152.57187205 144.68297789 158.14976157 148.8125 165.13818359 C156.08856807 172.03130072 164.0659129 173.12198614 173.73046875 173.03515625 C174.94481598 173.04391785 176.15916321 173.05267944 177.41030884 173.06170654 C180.71228035 173.07982961 184.01323482 173.07574229 187.31518936 173.05981112 C190.78851528 173.04705471 194.26177853 173.05891902 197.73510742 173.06674194 C203.56538899 173.07581046 209.39535274 173.06392477 215.22558594 173.04003906 C221.94346305 173.01283271 228.66058116 173.0216489 235.3784399 173.04917109 C241.17074751 173.07194163 246.9628281 173.07502374 252.75516605 173.06197774 C256.20395897 173.05422652 259.65239642 173.05302066 263.10116577 173.06966019 C266.94946968 173.08241616 270.79633404 173.06292125 274.64453125 173.03515625 C275.7710611 173.0452774 276.89759094 173.05539856 278.05825806 173.06582642 C285.38186574 172.96836674 291.11591136 171.6377045 297.1875 167.38818359 C302.28279343 162.01740306 305.4275424 156.54828817 305.45492554 149.01933289 C305.46345551 147.95542328 305.47198547 146.89151367 305.48077393 145.79536438 C305.47986755 144.63836533 305.47896118 143.48136627 305.47802734 142.28930664 C305.48474457 141.06272339 305.49146179 139.83614014 305.49838257 138.5723877 C305.5141119 135.21473982 305.52073683 131.85733933 305.52201414 128.4996717 C305.523438 126.39916731 305.52771206 124.29868867 305.53300858 122.19819069 C305.55150097 114.8621723 305.55968031 107.52622648 305.55810547 100.19018555 C305.55690475 93.36514084 305.57799517 86.54041271 305.6095928 79.71544808 C305.63579634 73.84519207 305.64647104 67.97503919 305.64519465 62.10472518 C305.64468614 58.60339679 305.65030678 55.10234978 305.67155075 51.60107994 C305.69462031 47.69234375 305.68538725 43.7840372 305.67333984 39.87524414 C305.68457886 38.72431778 305.69581787 37.57339142 305.70739746 36.3875885 C305.64763102 28.74760091 304.56744922 23.39842637 299.51171875 17.39990234 C298.97160156 16.96291016 298.43148437 16.52591797 297.875 16.07568359 C297.07642578 15.40085937 297.07642578 15.40085937 296.26171875 14.71240234 C289.15890763 10.17783931 283.17754797 9.94257028 274.89331055 9.95239258 C273.66964783 9.94231674 272.44598511 9.93224091 271.1852417 9.92185974 C267.84401047 9.89831382 264.50333869 9.88833134 261.16206336 9.88641238 C259.06989472 9.88427292 256.97778388 9.87785501 254.88562965 9.86992073 C247.57321097 9.84220553 240.2609558 9.8299103 232.94848633 9.83227539 C226.15394707 9.83407639 219.36012337 9.80243751 212.56576508 9.7550444 C206.71410216 9.71569526 200.86267196 9.6997288 195.01087791 9.70164162 C191.52390411 9.70240306 188.03756681 9.69404809 184.55072594 9.66210747 C180.65682931 9.62740843 176.7638986 9.6413782 172.86987305 9.65942383 C171.72927933 9.64256531 170.58868561 9.62570679 169.41352844 9.6083374 C160.5945182 9.71183563 153.98417294 12.26250953 147.93359375 18.83740234 Z M-23.75 190.32568359 C-28.68608338 197.65501953 -29.25457546 202.87356385 -29.23242188 211.56884766 C-29.24512619 213.4041227 -29.24512619 213.4041227 -29.25808716 215.276474 C-29.27744194 218.62190493 -29.28323662 221.96677729 -29.28133965 225.3122263 C-29.28121962 228.11257174 -29.28979714 230.91286552 -29.29811716 233.71319652 C-29.31733247 240.3260856 -29.32024271 246.93884847 -29.31347656 253.55175781 C-29.3068445 260.35357973 -29.32967016 267.15485817 -29.36679029 273.95656991 C-29.39757859 279.81245663 -29.40883728 285.6681694 -29.40495348 291.52413535 C-29.40289449 295.01438766 -29.40823117 298.50421736 -29.43284607 301.9943924 C-29.45943481 305.89312136 -29.44531583 309.79115017 -29.42773438 313.68994141 C-29.44099762 314.83210617 -29.45426086 315.97427094 -29.46792603 317.15104675 C-29.3825497 325.3291088 -27.71299446 332.21121033 -21.99849701 338.33076859 C-17.33725226 342.63652506 -12.86062544 344.62993194 -6.45710754 344.66233826 C-4.86557861 344.67730095 -4.86557861 344.67730095 -3.24189758 344.69256592 C-2.08804062 344.69323059 -0.93418365 344.69389526 0.25463867 344.69458008 C2.08969467 344.70706535 2.08969467 344.70706535 3.96182251 344.71980286 C7.3113347 344.73975471 10.66059843 344.75054115 14.01014876 344.7556293 C16.1066487 344.7592794 18.20312498 344.76552296 20.29961586 344.77263069 C27.62496611 344.79711378 34.95024571 344.81017374 42.27563477 344.8137207 C49.08479914 344.81735086 55.89351137 344.84721135 62.70253772 344.88912529 C68.56263448 344.92392252 74.42258214 344.9392708 80.28278142 344.93996674 C83.77642479 344.94075663 87.26960767 344.94936021 90.76314354 344.9779644 C94.66673288 345.00921163 98.56968314 345.00004035 102.47338867 344.98754883 C103.61712448 345.00238312 104.76086029 345.01721741 105.93925476 345.03250122 C113.32325705 344.96544372 119.06464085 343.67294583 125.1875 339.38818359 C132.71553326 331.56321759 133.4877309 323.8876029 133.49389648 313.39111328 C133.50638176 311.58509895 133.50638176 311.58509895 133.51911926 309.74259949 C133.53904743 306.45103451 133.54985299 303.15961625 133.55494571 299.86799908 C133.55859886 297.80717317 133.56484391 295.74637123 133.5719471 293.6855545 C133.59641678 286.48339275 133.60948775 279.28130275 133.61303711 272.07910156 C133.6166687 265.3863607 133.64654291 258.69407943 133.68844169 252.00147891 C133.72324082 246.23902547 133.73858722 240.47672363 133.73928314 234.71416593 C133.74007281 231.27977894 133.74866646 227.8458605 133.77728081 224.41158295 C133.80423271 220.57492944 133.7993564 216.7395329 133.78686523 212.90283203 C133.80169952 211.77936874 133.81653381 210.65590546 133.83181763 209.49839783 C133.764142 202.17299078 132.43959632 196.45939627 128.1875 190.38818359 C122.83819067 185.31343186 117.37081156 182.15229504 109.87007141 182.11402893 C108.81746628 182.1040538 107.76486115 182.09407867 106.68035889 182.08380127 C105.53585266 182.0831366 104.39134644 182.08247192 103.2121582 182.08178711 C101.99854111 182.07346359 100.78492401 182.06514008 99.53453064 182.05656433 C96.21187653 182.03661325 92.88947288 182.02582618 89.56678033 182.02073789 C87.48703128 182.01708765 85.40730607 182.01084402 83.32756615 182.0037365 C76.06057051 181.97925374 68.79364609 181.96619352 61.52661133 181.96264648 C54.77197693 181.95901639 48.01779835 181.92915634 41.2633031 181.8872419 C35.44991496 181.85244307 29.63667711 181.83709636 23.82318562 181.83640045 C20.35748639 181.83561061 16.89225138 181.82700943 13.42666054 181.79840279 C9.55420285 181.76715211 5.68238927 181.77632757 1.80981445 181.78881836 C0.67542938 181.77398407 -0.45895569 181.75914978 -1.62771606 181.74386597 C-10.12508142 181.82164313 -17.91165941 183.72925469 -23.75 190.32568359 Z M147.6875 191.38818359 C144.51777176 195.95848943 142.94182892 200.12239565 142.91334534 205.70561218 C142.90337021 206.75821732 142.89339508 207.81082245 142.88311768 208.89532471 C142.882453 210.03983093 142.88178833 211.18433716 142.88110352 212.36352539 C142.87278 213.57714249 142.86445648 214.79075958 142.85588074 216.04115295 C142.83592966 219.36380706 142.82514259 222.68621071 142.82005429 226.00890326 C142.81640406 228.08865231 142.81016042 230.16837752 142.8030529 232.24811745 C142.77857014 239.51511308 142.76550993 246.78203751 142.76196289 254.04907227 C142.7583328 260.80370667 142.72847275 267.55788525 142.68655831 274.31238049 C142.65175948 280.12576863 142.63641277 285.93900648 142.63571686 291.75249797 C142.63492702 295.21819721 142.62632584 298.68343221 142.59771919 302.14902306 C142.56646852 306.02148074 142.57564398 309.89329432 142.58813477 313.76586914 C142.57330048 314.90025421 142.55846619 316.03463928 142.54318237 317.20339966 C142.61043375 324.55079472 143.90213237 330.30592001 148.1875 336.38818359 C153.27102942 341.14176712 158.33414737 344.62650145 165.42263794 344.66233826 C167.01210487 344.67730095 167.01210487 344.67730095 168.63368225 344.69256592 C170.36986061 344.69356293 170.36986061 344.69356293 172.14111328 344.69458008 C173.97595024 344.70706535 173.97595024 344.70706535 175.84785461 344.71980286 C179.20155805 344.73977623 182.55501312 344.75054538 185.90875483 344.7556293 C188.00742702 344.75927667 190.10607549 344.76551891 192.20473862 344.77263069 C199.53656814 344.79712631 206.86832697 344.81017594 214.20019531 344.8137207 C221.01672328 344.81734932 227.83279914 344.84719546 234.64918911 344.88912529 C240.51351196 344.92392382 246.37768579 344.93927084 252.24211109 344.93996674 C255.7391226 344.94075675 259.23567412 344.94936532 262.73257828 344.9779644 C266.64106609 345.00921356 270.54891567 345.00003974 274.45751953 344.98754883 C275.60282639 345.00238312 276.74813324 345.01721741 277.92814636 345.03250122 C285.92282503 344.95999535 292.64102139 343.35225828 298.80159187 337.9808569 C305.35778546 330.70997039 305.63432678 323.40167716 305.62329102 314.09399414 C305.63840477 312.25850006 305.63840477 312.25850006 305.65382385 310.38592529 C305.67736977 307.04469406 305.68735225 303.70402229 305.68927121 300.36274695 C305.69141067 298.27057831 305.69782858 296.17846747 305.70576286 294.08631325 C305.73347806 286.77389456 305.74577329 279.46163939 305.7434082 272.14916992 C305.7416072 265.35463066 305.77324608 258.56080697 305.82063919 251.76644868 C305.85998834 245.91478576 305.8759548 240.06335556 305.87404197 234.2115615 C305.87328054 230.72458771 305.88163551 227.23825041 305.91357613 223.75140953 C305.94827517 219.8575129 305.93430539 215.9645822 305.91625977 212.07055664 C305.93311829 210.92996292 305.94997681 209.7893692 305.96734619 208.61421204 C305.87616473 200.84470474 304.08713831 195.48614448 299.1875 189.38818359 C294.17580635 184.70387965 288.71956298 182.1489726 281.87007141 182.11402893 C280.81746628 182.1040538 279.76486115 182.09407867 278.68035889 182.08380127 C277.53585266 182.0831366 276.39134644 182.08247192 275.2121582 182.08178711 C273.99854111 182.07346359 272.78492401 182.06514008 271.53453064 182.05656433 C268.21187653 182.03661325 264.88947288 182.02582618 261.56678033 182.02073789 C259.48703128 182.01708765 257.40730607 182.01084402 255.32756615 182.0037365 C248.06057051 181.97925374 240.79364609 181.96619352 233.52661133 181.96264648 C226.77197693 181.95901639 220.01779835 181.92915634 213.2633031 181.8872419 C207.44991496 181.85244307 201.63667711 181.83709636 195.82318562 181.83640045 C192.35748639 181.83561061 188.89225138 181.82700943 185.42666054 181.79840279 C181.55420285 181.76715211 177.68238927 181.77632757 173.80981445 181.78881836 C172.67542938 181.77398407 171.54104431 181.75914978 170.37228394 181.74386597 C161.16028404 181.82818424 153.59710976 183.98158045 147.6875 191.38818359 Z " fill="#010101" transform="translate(117.8125,78.61181640625)"/>
<path d="M0 0 C8.70131039 4.7932101 14.70155823 11.77867048 17.49609375 21.375 C17.93597045 24.46456055 18.08488811 27.50618815 18.12109375 30.625 C18.13213135 31.36927246 18.14316895 32.11354492 18.15454102 32.88037109 C18.02529852 37.87367992 16.85669795 41.27969284 14.25146484 45.54199219 C13.27238141 47.91786757 13.57059649 49.00923898 14.49609375 51.375 C15.19734375 52.179375 15.89859375 52.98375 16.62109375 53.8125 C18.49609375 56.375 18.49609375 56.375 18.37109375 59.0625 C17.49609375 61.375 17.49609375 61.375 15.49609375 63.375 C13.18359375 63.8125 13.18359375 63.8125 10.49609375 63.375 C7.68359375 60.875 7.68359375 60.875 5.49609375 58.375 C4.69171875 58.643125 3.88734375 58.91125 3.05859375 59.1875 C1.88296875 59.579375 0.70734375 59.97125 -0.50390625 60.375 C-1.46683594 60.77138672 -1.46683594 60.77138672 -2.44921875 61.17578125 C-10.38107157 64.26364277 -19.31860545 65.05133747 -27.31640625 61.75 C-28.73683616 61.00336376 -30.1341236 60.210932 -31.50390625 59.375 C-32.55191406 58.73884766 -32.55191406 58.73884766 -33.62109375 58.08984375 C-40.96848938 53.11302294 -46.69168722 45.15153182 -48.50390625 36.375 C-49.52381636 26.57882632 -48.34751503 18.84381333 -42.65625 10.74609375 C-31.75220947 -2.53269244 -16.08692277 -6.8841512 0 0 Z " fill="#060606" transform="translate(188.50390625,139.625)"/>
<path d="M0 0 C3 0.25 3 0.25 5 2.25 C5.25828552 4.12727356 5.25828552 4.12727356 5.27124023 6.43676758 C5.28142685 7.30139114 5.29161346 8.16601471 5.30210876 9.05683899 C5.30424881 9.99327744 5.30638885 10.92971588 5.30859375 11.89453125 C5.33375877 13.87044559 5.35915672 15.84635698 5.38476562 17.82226562 C5.41349333 20.94278161 5.43750449 24.06324612 5.45629883 27.18383789 C5.47797001 30.19184503 5.51741819 33.1992371 5.55859375 36.20703125 C5.55870956 37.137397 5.55882538 38.06776276 5.5589447 39.02632141 C5.6505195 45.02714997 6.39236485 48.6927269 10.8203125 53.03515625 C15.16560454 55.45699465 20.19166946 54.84702903 25 54.25 C28.19616185 52.97273457 30.42299908 51.40400183 32 48.25 C32.10263149 46.81593877 32.14583251 45.37737722 32.15771484 43.93969727 C32.16797699 43.04859756 32.17823914 42.15749786 32.18881226 41.23939514 C32.19611359 40.27480881 32.20341492 39.31022247 32.2109375 38.31640625 C32.23900007 36.28579915 32.26766449 34.25520029 32.296875 32.22460938 C32.33819854 29.01391781 32.37507467 25.80338118 32.40136719 22.5925293 C32.42890342 19.50016273 32.47476933 16.4085026 32.5234375 13.31640625 C32.52669037 12.35384415 32.52994324 11.39128204 32.53329468 10.39955139 C32.54986115 9.50529953 32.56642761 8.61104767 32.58349609 7.68969727 C32.59158295 6.90297134 32.5996698 6.11624542 32.60800171 5.30567932 C33.10258315 2.71204342 33.90322832 1.81870766 36 0.25 C39.0625 -0.125 39.0625 -0.125 42 0.25 C44.058577 3.33786549 44.25321524 4.00813872 44.2746582 7.50268555 C44.28895622 8.78498299 44.28895622 8.78498299 44.30354309 10.09318542 C44.30263168 11.01505142 44.30172028 11.93691742 44.30078125 12.88671875 C44.30506638 13.8401265 44.3093515 14.79353424 44.31376648 15.77583313 C44.31951238 17.79577847 44.32000814 19.8157445 44.31567383 21.83569336 C44.31252977 24.90840635 44.3359144 27.98014157 44.36132812 31.05273438 C44.36360285 33.01822796 44.36430381 34.98372412 44.36328125 36.94921875 C44.372491 37.86096359 44.38170074 38.77270844 44.39118958 39.71208191 C44.34133666 46.68024612 43.34194494 52.37275336 38.8125 57.9375 C30.78245375 64.53998247 24.45153243 67.01089453 14 66.25 C7.54088962 65.01048762 2.18750646 61.26386582 -2 56.25 C-5.23604126 50.2343078 -5.42638653 45.10925166 -5.36328125 38.35546875 C-5.36377975 37.32690262 -5.36427826 36.29833649 -5.36479187 35.23860168 C-5.36246078 33.07612158 -5.35278958 30.91363828 -5.33618164 28.7512207 C-5.31245289 25.43090818 -5.31564498 22.11139218 -5.32226562 18.79101562 C-5.31669295 16.68749519 -5.30958566 14.58397814 -5.30078125 12.48046875 C-5.30169266 11.48468307 -5.30260406 10.4888974 -5.30354309 9.4629364 C-5.29401108 8.54470596 -5.28447906 7.62647552 -5.2746582 6.68041992 C-5.27005081 5.87102463 -5.26544342 5.06162933 -5.26069641 4.22770691 C-4.79551461 0.69872366 -3.36680215 0.28056685 0 0 Z " fill="#060606" transform="translate(324,136.75)"/>
<path d="M0 0 C5.09311553 3.50371224 8.33169713 7.6868037 10.265625 13.55859375 C10.97096255 19.85167037 10.79717685 25.11411798 7.265625 30.55859375 C6.399375 29.73359375 5.533125 28.90859375 4.640625 28.05859375 C2.12650621 25.94458412 1.37948937 25.57148406 -2.046875 25.18359375 C-4.64802231 25.2713735 -4.64802231 25.2713735 -5.734375 26.55859375 C-6.23606915 29.38932811 -6.23606915 29.38932811 -5.734375 32.55859375 C-3.31770729 35.30901041 -3.31770729 35.30901041 -0.734375 37.55859375 C-0.734375 38.21859375 -0.734375 38.87859375 -0.734375 39.55859375 C-6.87673208 42.43890809 -13.08273816 42.28846793 -19.734375 41.55859375 C-26.08786825 39.259892 -30.31506594 34.41410041 -33.83984375 28.796875 C-36.06568818 23.22740399 -35.83622423 15.68705853 -33.859375 10.07421875 C-30.6221556 4.57946477 -25.86563435 0.42042363 -20.421875 -2.81640625 C-12.83700412 -4.58032971 -6.82035372 -3.78551079 0 0 Z " fill="#FBFBFB" transform="translate(185.734375,150.44140625)"/>
<path d="M0 0 C0.85521744 0.00091141 1.71043488 0.00182281 2.59156799 0.00276184 C3.46946487 -0.00152328 4.34736176 -0.00580841 5.25186157 -0.01022339 C7.11044959 -0.01597191 8.96906012 -0.01646312 10.82765198 -0.01213074 C13.67447757 -0.00897327 16.52026181 -0.03241428 19.36695862 -0.05778503 C21.17099376 -0.06005819 22.97503171 -0.06076145 24.77906799 -0.05973816 C25.6322612 -0.06894791 26.48545441 -0.07815765 27.36450195 -0.08764648 C33.32251053 -0.04091567 33.32251053 -0.04091567 35.47244263 1.68447876 C36.75172424 3.30354309 36.75172424 3.30354309 37.20094299 5.58088684 C36.5852498 9.31252298 34.71876268 11.85563115 32.56422424 14.86604309 C31.64470849 16.19570377 30.72682563 17.5264947 29.81031799 18.85823059 C29.31644592 19.57075989 28.82257385 20.28328918 28.31373596 21.01741028 C25.50744198 25.12465267 22.82405653 29.31178195 20.12672424 33.49104309 C15.39919378 40.8053215 10.59546439 48.06583281 5.75172424 55.30354309 C6.61450989 55.31812561 7.47729553 55.33270813 8.3662262 55.34773254 C11.57022072 55.40882063 14.7735705 55.48297858 17.97706604 55.56599426 C19.36301802 55.59922858 20.74910485 55.62726535 22.13526917 55.64997864 C24.12879268 55.68354926 26.12194165 55.73742309 28.11500549 55.79182434 C29.31423645 55.81800842 30.51346741 55.8441925 31.7490387 55.87117004 C34.75172424 56.30354309 34.75172424 56.30354309 36.68214417 57.64021301 C37.75172424 59.30354309 37.75172424 59.30354309 37.50172424 62.42854309 C36.75172424 65.30354309 36.75172424 65.30354309 35.75172424 66.30354309 C34.41729572 66.41171522 33.07729126 66.45253036 31.73854065 66.4646759 C30.88740692 66.47428345 30.03627319 66.48389099 29.15934753 66.49378967 C28.23334747 66.49803955 27.30734741 66.50228943 26.35328674 66.50666809 C24.9344368 66.5152182 24.9344368 66.5152182 23.48692322 66.52394104 C21.48112614 66.53340673 19.4753134 66.53993122 17.46949768 66.54377747 C14.39663099 66.55348023 11.32443368 66.58448767 8.25172424 66.61604309 C6.30641573 66.62257306 4.36110242 66.62782355 2.41578674 66.63166809 C1.49383514 66.64401489 0.57188354 66.65636169 -0.37800598 66.66908264 C-1.23544403 66.66608154 -2.09288208 66.66308044 -2.9763031 66.6599884 C-4.10762161 66.66545685 -4.10762161 66.66545685 -5.26179504 66.67103577 C-7.7987987 66.20169808 -8.7050594 65.3377358 -10.24827576 63.30354309 C-10.11630072 58.78533877 -7.69597451 55.36607483 -5.31077576 51.67854309 C-4.88981628 51.01556213 -4.46885681 50.35258118 -4.03514099 49.66950989 C1.38019184 41.20893023 6.99383982 32.87309862 12.59327698 24.53352356 C12.97681335 23.96166824 13.36034973 23.38981293 13.75550842 22.80062866 C14.80838532 21.2315942 15.86288777 19.6636509 16.91749573 18.09577942 C18.5996575 15.53503348 20.19722071 12.94327177 21.75172424 10.30354309 C20.91923157 10.31925354 20.08673889 10.33496399 19.22901917 10.35115051 C16.13724569 10.40230951 13.04568806 10.4399079 9.95362854 10.46833801 C7.95844724 10.49082642 5.96346212 10.52894507 3.96852112 10.56721497 C2.71490784 10.57688293 1.46129456 10.5865509 0.16969299 10.59651184 C-0.98764343 10.61222229 -2.14497986 10.62793274 -3.33738708 10.64411926 C-6.24827576 10.30354309 -6.24827576 10.30354309 -8.16111755 8.94538879 C-9.24827576 7.30354309 -9.24827576 7.30354309 -9.06077576 4.74104309 C-7.39264153 -0.2633596 -4.84245107 0.05835467 0 0 Z " fill="#030303" transform="translate(328.24827575683594,308.6964569091797)"/>
<path d="M0 0 C3.5625 0.25 3.5625 0.25 7 1 C8.34531059 3.69062118 8.13456332 5.78231331 8.14526367 8.79492188 C8.15483345 10.61691101 8.15483345 10.61691101 8.16459656 12.47570801 C8.16570938 13.79341187 8.1668222 15.11111572 8.16796875 16.46875 C8.17118076 17.82873571 8.17454478 19.18872108 8.17805481 20.54870605 C8.184046 23.40015464 8.18589467 26.25157291 8.18530273 29.10302734 C8.185201 32.76180621 8.19886501 36.42039151 8.21607494 40.07912445 C8.22717657 42.88776549 8.22922253 45.69635941 8.22869301 48.50502014 C8.23045141 50.51145868 8.24130197 52.51788252 8.25224304 54.52429199 C8.24916641 55.73895142 8.24608978 56.95361084 8.24291992 58.20507812 C8.24434494 59.27826294 8.24576996 60.35144775 8.24723816 61.45715332 C8 64 8 64 6 66 C3 66.25 3 66.25 0 66 C-2.70341915 63.29658085 -2.25327453 61.89415955 -2.25878906 58.11328125 C-2.26509338 56.87860107 -2.27139771 55.6439209 -2.27789307 54.37182617 C-2.27431338 53.018716 -2.27021145 51.66560713 -2.265625 50.3125 C-2.26697175 48.93009371 -2.26891236 47.54768787 -2.27142334 46.1652832 C-2.27437418 43.26671849 -2.27007836 40.36827697 -2.26074219 37.46972656 C-2.24934755 33.75039363 -2.25590725 30.03134932 -2.26788712 26.31202698 C-2.27510688 23.45704973 -2.27281728 20.60214115 -2.26763153 17.74716187 C-2.26629535 16.37559983 -2.26794166 15.00403161 -2.27259064 13.63247681 C-2.27765748 11.7172253 -2.26856831 9.80195199 -2.25878906 7.88671875 C-2.25719788 6.79576904 -2.25560669 5.70481934 -2.25396729 4.58081055 C-2 2 -2 2 0 0 Z " fill="#010101" transform="translate(167,309)"/>
<path d="M0 0 C4.29238623 1.65091778 6.8793915 4.73754566 10 8 C8.34908222 12.29238623 5.26245434 14.8793915 2 18 C-2.29238623 16.34908222 -4.8793915 13.26245434 -8 10 C-6.34908222 5.70761377 -3.26245434 3.1206085 0 0 Z " fill="#F0F0F0" transform="translate(255,247)"/>
</svg>
